<svg width="80" height="80" viewBox="0 0 80 80" fill="none" xmlns="http://www.w3.org/2000/svg">
<path d="M55.8422 52.4047V52.4063L50.4562 55.3078L50.4453 55.3203C49.412 54.4074 48.0803 53.9044 46.7015 53.9063H45.014L49.5015 51.4656C51.5344 50.2875 54.1812 50.7438 55.8422 52.4047Z" fill="#E8CECD"/>
<path d="M62.0703 53.3922C61.1297 51.7391 58.9047 50.8094 57.2078 51.6703L50.4563 55.3078L50.4453 55.3203C51.4301 56.1882 52.0815 57.3723 52.2875 58.6688L62.0766 53.4047L62.0703 53.3922Z" fill="#F2D4D1"/>
<path d="M43.8727 11.0766L38.9062 11.0625V15.625H43.9062V11.1172L43.8727 11.0766Z" fill="#CCD3DF"/>
<path d="M38.8484 11.0625C37.8192 10.4589 37.0442 9.5021 36.6674 8.37C36.2906 7.2379 36.3378 6.0075 36.8 4.90753C37.2623 3.80756 38.1082 2.91286 39.1805 2.38973C40.2529 1.86661 41.4787 1.75066 42.6301 2.06344C43.7816 2.37621 44.7803 3.09644 45.4405 4.09023C46.1008 5.08401 46.3778 6.28375 46.22 7.46642C46.0622 8.64909 45.4803 9.73422 44.5825 10.5201C43.6848 11.306 42.5322 11.7391 41.339 11.7391C40.4634 11.7393 39.6036 11.5057 38.8484 11.0625Z" fill="#B0B5CA"/>
<path d="M43.8312 15.5828C57.764 16.6141 69.0437 26.2203 71.5547 38.7375H11.1234C13.6344 26.2203 24.914 16.6141 38.8484 15.5828C39.6687 15.5219 40.4989 15.4912 41.339 15.4906C42.1791 15.4901 43.0099 15.5208 43.8312 15.5828Z" fill="#B0B5CA"/>
<path d="M73.3187 43.775L72.4641 47.8875C72.3213 48.5752 71.946 49.1927 71.4013 49.636C70.8566 50.0794 70.1758 50.3216 69.4734 50.3219H13.1109C12.3967 50.3219 11.705 50.0717 11.156 49.6146C10.6071 49.1576 10.2357 48.5227 10.1062 47.8203L9.35938 43.775H73.3187Z" fill="#6D7486"/>
<path d="M63.0844 52.861L52.2875 58.6688C52.0756 57.34 51.3967 56.1304 50.3728 55.2574C49.3489 54.3844 48.0471 53.9053 46.7016 53.9063H39.0922C37.7279 53.9059 36.3813 53.5972 35.1531 53.0031L34.3687 52.6235C32.2742 51.6103 29.9409 51.194 27.6252 51.4203C25.3095 51.6466 23.101 52.5068 21.2422 53.9063L19.3469 55.5922C18.3335 56.4956 17.0914 57.1031 15.7562 57.3485L15.6437 57.3844L20.0469 71.5532L26.2406 67.6375C27.1876 67.1082 28.301 66.9607 29.3531 67.225L40.789 69.3313C41.2756 69.4189 41.7663 69.4809 42.2594 69.5172C45.3079 69.7162 48.3335 68.8739 50.8406 67.1282L69.1906 54.5297C68.5825 53.5199 67.6088 52.7831 66.4717 52.4724C65.3346 52.1616 64.1215 52.3008 63.0844 52.861Z" fill="#FDDDD8"/>
<path d="M43.536 15.5828C43.585 15.5792 43.6344 15.5767 43.6835 15.5733C42.9097 15.5192 42.1285 15.4916 41.3397 15.4906C40.5006 15.4906 39.6704 15.5213 38.8491 15.5828C24.9147 16.614 13.635 26.2203 11.1241 38.7375H15.8116C18.3219 26.2203 29.6016 16.614 43.536 15.5828Z" fill="#D3D9EA"/>
<path d="M14.7938 47.8203L14.0469 43.775H9.35938L10.1062 47.8203C10.2357 48.5227 10.6071 49.1576 11.156 49.6146C11.705 50.0717 12.3967 50.3219 13.1109 50.3219H17.7984C17.0842 50.3219 16.3925 50.0717 15.8436 49.6146C15.2946 49.1576 14.9232 48.5227 14.7938 47.8203Z" fill="#9297A5"/>
<path d="M74.2875 38.75H8.39064C8.04996 38.7484 7.71234 38.8143 7.39724 38.9439C7.08214 39.0734 6.7958 39.264 6.5547 39.5047C6.19251 39.8642 5.94532 40.3232 5.84453 40.8234C5.74375 41.3237 5.79391 41.8426 5.98864 42.3143C6.18338 42.786 6.5139 43.1891 6.93824 43.4726C7.36258 43.756 7.86159 43.907 8.37189 43.9062H74.2875C74.9713 43.9062 75.627 43.6346 76.1105 43.1511C76.594 42.6676 76.8656 42.0119 76.8656 41.3281C76.8656 40.6444 76.594 39.9886 76.1105 39.5051C75.627 39.0216 74.9713 38.75 74.2875 38.75Z" fill="#4A5160"/>
<path d="M10.4813 41.325C10.4809 40.9863 10.548 40.6508 10.6786 40.3383C10.8092 40.0258 11.0008 39.7424 11.2422 39.5047C11.4833 39.264 11.7696 39.0734 12.0847 38.9439C12.3998 38.8143 12.7375 38.7484 13.0781 38.75H8.39064C8.04996 38.7484 7.71234 38.8143 7.39724 38.9439C7.08214 39.0734 6.7958 39.264 6.5547 39.5047C6.19251 39.8642 5.94532 40.3232 5.84453 40.8234C5.74375 41.3237 5.79391 41.8426 5.98864 42.3143C6.18338 42.786 6.5139 43.1891 6.93824 43.4726C7.36258 43.756 7.86159 43.907 8.37189 43.9062H13.0594C12.7202 43.9077 12.384 43.8419 12.0704 43.7126C11.7567 43.5834 11.4718 43.3932 11.2321 43.1532C10.9924 42.9132 10.8026 42.628 10.6737 42.3142C10.5448 42.0004 10.4794 41.6642 10.4813 41.325Z" fill="#6A7282"/>
<path d="M52.3593 60.5011C52.3453 60.5011 52.3311 60.5011 52.3168 60.5L45.8259 60.2063C43.9298 60.121 42.0299 60.2088 40.1498 60.4688C40.0279 60.4856 39.9038 60.4783 39.7846 60.4473C39.6655 60.4162 39.5537 60.3619 39.4555 60.2876C39.3573 60.2133 39.2747 60.1204 39.2125 60.0142C39.1502 59.908 39.1095 59.7906 39.0926 59.6686C39.0757 59.5466 39.083 59.4226 39.1141 59.3034C39.1452 59.1843 39.1994 59.0725 39.2737 58.9743C39.348 58.8761 39.441 58.7936 39.5472 58.7313C39.6534 58.669 39.7708 58.6283 39.8928 58.6114C41.886 58.3357 43.9003 58.2427 45.9104 58.3334L51.3181 58.5781C51.0909 57.5219 50.5089 56.5754 49.669 55.896C48.829 55.2165 47.7817 54.8452 46.7014 54.8438H39.092C37.5868 54.8418 36.1012 54.5014 34.7453 53.8478L33.9606 53.4683C32.0281 52.528 29.8736 52.1392 27.7343 52.3446C25.595 52.55 23.5538 53.3418 21.8356 54.6327L19.9703 56.2931C18.8285 57.3098 17.4298 57.9941 15.9264 58.2716C15.8047 58.2954 15.6796 58.2948 15.5581 58.2699C15.4367 58.245 15.3214 58.1963 15.2189 58.1266C15.1165 58.0568 15.0288 57.9674 14.9611 57.8636C14.8934 57.7598 14.847 57.6436 14.8245 57.5217C14.802 57.3998 14.8039 57.2746 14.8301 57.1535C14.8562 57.0323 14.9062 56.9176 14.977 56.8158C15.0478 56.7141 15.1381 56.6274 15.2427 56.5608C15.3472 56.4942 15.4639 56.449 15.5861 56.4278C16.7525 56.2125 17.8376 55.6817 18.7236 54.893L20.6182 53.2063C20.6373 53.1891 20.6573 53.1728 20.6778 53.1573C22.6719 51.6492 25.0444 50.7223 27.5328 50.4793C30.0211 50.2363 32.5282 50.6866 34.7764 51.7805L35.5612 52.16C36.6625 52.6908 37.8691 52.9672 39.0917 52.9688H46.7011C48.4496 52.9708 50.126 53.6663 51.3624 54.9027C52.5987 56.1392 53.2942 57.8155 53.2962 59.5641C53.2962 59.8127 53.1974 60.0512 53.0216 60.227C52.8458 60.4028 52.6073 60.5016 52.3587 60.5016L52.3593 60.5011Z" fill="#F5CAC1"/>
<path d="M31.0781 25.6537C30.8658 25.6539 30.6598 25.5821 30.4936 25.4499C30.3275 25.3178 30.2111 25.1332 30.1635 24.9263C30.116 24.7194 30.14 24.5025 30.2318 24.3111C30.3235 24.1197 30.4775 23.965 30.6686 23.8725C30.9654 23.7289 31.2703 23.5891 31.5761 23.457C31.6891 23.4082 31.8107 23.3822 31.9338 23.3804C32.0569 23.3785 32.1791 23.401 32.2936 23.4464C32.408 23.4918 32.5124 23.5594 32.6007 23.6451C32.689 23.7309 32.7596 23.8332 32.8084 23.9462C32.8572 24.0593 32.8833 24.1808 32.8851 24.3039C32.8869 24.427 32.8645 24.5493 32.819 24.6637C32.7736 24.7782 32.7061 24.8825 32.6203 24.9709C32.5346 25.0592 32.4322 25.1298 32.3192 25.1786C32.0379 25.2997 31.7583 25.4286 31.4865 25.5597C31.3593 25.6216 31.2196 25.6538 31.0781 25.6537Z" fill="#F4F8FC"/>
<path d="M22.9156 32.6728C22.7457 32.6726 22.579 32.6263 22.4334 32.5387C22.2878 32.4512 22.1687 32.3257 22.0889 32.1757C22.0091 32.0257 21.9715 31.8568 21.9802 31.6872C21.989 31.5175 22.0436 31.3533 22.1384 31.2123C23.6893 28.9131 25.6767 26.9409 27.9876 25.4076C28.1944 25.2694 28.4475 25.219 28.6914 25.2674C28.9353 25.3159 29.1499 25.4592 29.2881 25.6659C29.4263 25.8726 29.4768 26.1258 29.4283 26.3697C29.3799 26.6135 29.2365 26.8282 29.0298 26.9664C26.9221 28.3639 25.1094 30.1619 23.6947 32.2581C23.6088 32.3859 23.4929 32.4905 23.357 32.5629C23.2211 32.6352 23.0695 32.6729 22.9156 32.6728Z" fill="#F4F8FC"/>
<path d="M21.7969 77.3063L15.3422 56.4023C15.3037 56.2722 15.2254 56.1575 15.1184 56.0741C15.0113 55.9907 14.8809 55.943 14.7453 55.9375H3.74061C3.64322 55.9399 3.54767 55.9645 3.46121 56.0093C3.37475 56.0542 3.29966 56.1182 3.24166 56.1965C3.18365 56.2748 3.14427 56.3652 3.12648 56.461C3.1087 56.5568 3.113 56.6554 3.13905 56.7492L8.95311 77.6464C8.9887 77.7802 9.06641 77.899 9.17475 77.9852C9.28309 78.0714 9.4163 78.1204 9.55467 78.125H21.1984C21.2968 78.1236 21.3934 78.0994 21.4808 78.0543C21.5682 78.0091 21.6438 77.9443 21.7019 77.8649C21.7599 77.7855 21.7987 77.6937 21.8152 77.5968C21.8317 77.4998 21.8254 77.4004 21.7969 77.3063Z" fill="#ADF8D1"/>
<path d="M13.6406 77.6464L7.82655 56.75C7.80036 56.6561 7.79595 56.5574 7.81367 56.4615C7.83138 56.3657 7.87075 56.2751 7.92877 56.1967C7.98678 56.1184 8.06192 56.0543 8.14845 56.0094C8.23499 55.9644 8.33064 55.9399 8.42811 55.9375H3.74061C3.64322 55.9399 3.54767 55.9645 3.46121 56.0093C3.37475 56.0542 3.29966 56.1182 3.24166 56.1965C3.18365 56.2748 3.14427 56.3652 3.12648 56.461C3.1087 56.5568 3.113 56.6554 3.13905 56.7492L8.95311 77.6464C8.9887 77.7802 9.06641 77.899 9.17475 77.9852C9.28309 78.0714 9.4163 78.1204 9.55467 78.125H14.2422C14.1038 78.1204 13.9706 78.0714 13.8623 77.9852C13.7539 77.899 13.6762 77.7802 13.6406 77.6464Z" fill="#8BC6A3"/>
<path d="M13.6703 71.8859C14.0328 71.8859 14.3872 71.9934 14.6886 72.1948C14.99 72.3962 15.2249 72.6824 15.3636 73.0173C15.5024 73.3522 15.5387 73.7208 15.4679 74.0763C15.3972 74.4318 15.2227 74.7584 14.9663 75.0147C14.71 75.271 14.3834 75.4456 14.0279 75.5163C13.6724 75.587 13.3039 75.5507 12.9689 75.412C12.634 75.2733 12.3478 75.0384 12.1464 74.737C11.945 74.4356 11.8375 74.0812 11.8375 73.7187C11.8374 73.478 11.8848 73.2397 11.9769 73.0173C12.069 72.7948 12.204 72.5928 12.3742 72.4226C12.5444 72.2523 12.7464 72.1173 12.9689 72.0253C13.1913 71.9332 13.4296 71.8858 13.6703 71.8859Z" fill="#6CC289"/>
</svg>
